<svg xmlns="http://www.w3.org/2000/svg" width="256" height="256" fill="none"><path fill="#F33330" d="M0 0h256v256H0z"/><path fill="#fff" fill-rule="evenodd" d="M125.963 89.968c16.896 0 27.552-13.152 27.552-33.984S142.859 22 125.963 22 98.411 35.152 98.411 55.984s10.656 33.984 27.552 33.984Zm0-6.144c-7.392 0-11.424-9.792-11.424-27.84 0-18.048 4.032-27.84 11.424-27.84 7.392 0 11.424 9.792 11.424 27.84 0 18.048-4.032 27.84-11.424 27.84ZM83.136 27.568c4.416.384 5.76 1.248 5.76 3.36 0 1.152-.384 2.496-1.728 5.184l-9.6 18.912-9.216-19.392c-.96-2.112-1.632-4.032-1.632-4.992 0-2.016 1.152-2.688 5.952-3.072v-4.224H48v4.224c1.92.672 2.88 2.208 5.28 6.912l14.016 27.36v14.4c0 6.912-.864 7.872-7.2 8.16v4.224H88.32V84.4c-6.336-.288-7.2-1.248-7.2-8.16V62.224L94.56 34.96c2.208-4.512 3.648-6.72 6.144-7.392v-4.224H83.136v4.224Zm119.99 36.864c0 16.992-6.24 25.536-21.216 25.536-13.728 0-22.368-7.296-22.368-22.464V35.632c0-6.72-.576-7.68-4.32-8.064v-4.224h25.344v4.224c-5.952.384-6.624 1.152-6.624 8.064V68.08c0 9.6 4.224 14.304 11.328 14.304 7.584 0 11.328-5.376 11.328-15.264V36.976c0-7.776-1.056-9.024-7.68-9.408v-4.224h18.336v4.224c-3.552.384-4.128 1.44-4.128 9.408v27.456ZM100.52 111.568c0 6.528-3.648 12.576-11.52 15.456l15.744 25.44c1.248 2.016 2.208 3.072 4.032 3.936v4.224h-15.84l-17.664-31.68h-2.496v19.296c0 6.336 1.152 7.776 6.816 8.16v4.224H53V156.4c5.088-.384 5.952-1.632 5.952-8.16v-40.512c0-6.528-.864-7.776-5.952-8.16v-4.224h27.648c13.44 0 19.872 5.568 19.872 16.224Zm-13.536.192c0-7.776-2.784-11.424-10.08-11.424h-4.128v23.616h2.112c8.544 0 12.096-4.896 12.096-12.192Zm56.15-8.256c0-2.592-2.112-3.648-7.2-3.936v-4.224h64.065l.864 16.512h-6.144c-2.209-9.312-4.705-11.52-12.673-11.52h-8.351v24.48h3.84c7.2 0 8.447-1.248 9.216-9.12h5.375v23.232h-5.375c-.769-7.872-2.016-9.12-9.216-9.12h-3.84v18.528c0 6.048.864 7.296 5.28 7.296h4.703c7.2 0 9.984-3.168 12.48-14.496h6.145l-1.345 19.488h-47.039V156.4c5.088-.384 5.952-1.632 5.952-8.16v-40.512c0-6.473-.85-7.754-5.824-8.15-1.806.588-2.951 2.507-4.097 6.23l-17.088 54.816h-8.64l-18.624-54.528c-1.536-4.608-2.4-5.952-4.224-6.528v-4.224h25.44v4.224c-4.8.288-6.912.96-6.912 3.36 0 1.44.384 3.648 1.632 7.488l10.08 32.448 10.176-32.64c1.248-4.032 1.344-5.568 1.344-6.72Zm40.987 130.464c12 0 19.296-6.816 19.296-17.76 0-9.312-4.224-15.168-12.192-20.544l-8.927-5.856c-4.993-3.36-7.296-5.664-7.296-10.272 0-4.416 2.783-7.392 8.639-7.392 6.625 0 11.136 4.704 13.153 15.552h6.144v-20.832h-4.993c-.384 1.92-.864 3.072-1.824 3.072-.302 0-.755-.271-1.425-.67-1.885-1.124-5.478-3.266-12.206-3.266-12 0-19.296 6.816-19.296 17.76 0 9.312 4.224 15.168 12.192 20.544l8.927 5.856c4.992 3.36 7.296 5.664 7.296 10.272 0 4.416-2.783 7.392-8.64 7.392-6.624 0-11.135-5.472-13.151-18.048h-6.144v23.328h4.992c.384-1.92.864-3.072 1.824-3.072.34 0 .853.294 1.599.721 1.983 1.136 5.613 3.215 12.032 3.215Zm-60.714-67.488h14.208l17.76 52.512c2.496 7.488 3.36 8.736 5.568 9.408v4.224h-24.576V228.4c4.224-.288 5.856-1.44 5.856-4.032 0-1.248-.384-2.784-1.056-4.704l-2.208-6.624h-19.68l-2.304 6.816c-.672 2.016-.96 3.456-.96 4.704 0 2.688 1.824 3.552 5.952 3.84v4.224h-17.28V228.4c2.304-.576 3.264-1.92 5.76-9.216l15.456-45.216-2.496-7.488Zm13.536 40.416-7.776-23.328-7.872 23.328h15.648Zm-30.607-7.296c0 20.928-11.04 33.024-30.144 33.024H52V228.4c5.088-.384 5.952-1.632 5.952-8.16v-40.512c0-6.528-.864-7.776-5.952-8.16v-4.224h24.672c19.008 0 29.664 11.616 29.664 32.256Zm-34.56 18.048c0 7.392 1.824 10.176 6.624 10.176 8.256 0 13.152-10.464 13.152-28.128s-6.048-27.36-17.088-27.36h-2.688v45.312Z" clip-rule="evenodd"/></svg>